<svg width="69" height="83" viewBox="0 0 69 83" fill="none" xmlns="http://www.w3.org/2000/svg">
<rect x="35" y="64" width="34" height="19" rx="7" fill="#2D7A3A"/>
<path d="M11 2H45V16H59V68C59 72.9706 54.9706 77 50 77H11C6.02944 77 2 72.9706 2 68V11C2 6.02944 6.02944 2 11 2Z" stroke="#2D7A3A" stroke-width="4"/>
<path d="M58.6104 77.0005V70.4551H59.9719V72.916H60.0135C60.0732 72.7839 60.1594 72.6497 60.2724 72.5133C60.3874 72.3748 60.5366 72.2598 60.7198 72.1681C60.9052 72.0744 61.1353 72.0275 61.4102 72.0275C61.7681 72.0275 62.0984 72.1213 62.4009 72.3088C62.7035 72.4941 62.9453 72.7743 63.1264 73.1493C63.3075 73.5222 63.3981 73.9899 63.3981 74.5524C63.3981 75.1 63.3097 75.5623 63.1328 75.9395C62.9581 76.3145 62.7195 76.5989 62.4169 76.7928C62.1165 76.9846 61.7798 77.0804 61.407 77.0804C61.1428 77.0804 60.918 77.0368 60.7326 76.9494C60.5494 76.862 60.3992 76.7523 60.282 76.6202C60.1648 76.486 60.0753 76.3507 60.0135 76.2143H59.9528V77.0005H58.6104ZM59.9432 74.546C59.9432 74.8379 59.9837 75.0925 60.0646 75.3098C60.1456 75.5272 60.2628 75.6966 60.4162 75.818C60.5696 75.9373 60.756 75.997 60.9755 75.997C61.1971 75.997 61.3846 75.9363 61.538 75.8148C61.6914 75.6912 61.8075 75.5208 61.8864 75.3034C61.9673 75.084 62.0078 74.8315 62.0078 74.546C62.0078 74.2626 61.9684 74.0133 61.8896 73.7981C61.8107 73.5829 61.6946 73.4146 61.5412 73.2931C61.3878 73.1717 61.1992 73.111 60.9755 73.111C60.7539 73.111 60.5664 73.1696 60.413 73.2868C60.2617 73.4039 60.1456 73.5701 60.0646 73.7853C59.9837 74.0005 59.9432 74.2541 59.9432 74.546Z" fill="white"/>
<path d="M56.1343 74.9103V72.0914H57.4958V77.0005H56.1887V76.1088H56.1375C56.0267 76.3965 55.8424 76.6277 55.5846 76.8024C55.3289 76.9771 55.0168 77.0645 54.6482 77.0645C54.32 77.0645 54.0313 76.9899 53.7821 76.8407C53.5328 76.6916 53.3378 76.4796 53.1972 76.2047C53.0587 75.9299 52.9884 75.6007 52.9862 75.2172V72.0914H54.3477V74.9743C54.3499 75.264 54.4276 75.4931 54.5811 75.6614C54.7345 75.8297 54.9401 75.9139 55.1979 75.9139C55.362 75.9139 55.5154 75.8766 55.6581 75.802C55.8009 75.7253 55.9159 75.6124 56.0033 75.4632C56.0928 75.3141 56.1365 75.1298 56.1343 74.9103Z" fill="white"/>
<path d="M47.1847 77.0005V70.4551H49.767C50.2635 70.4551 50.6864 70.5499 51.0359 70.7395C51.3853 70.927 51.6516 71.188 51.8349 71.5225C52.0202 71.8549 52.1129 72.2385 52.1129 72.6731C52.1129 73.1078 52.0192 73.4913 51.8317 73.8237C51.6442 74.1561 51.3725 74.415 51.0167 74.6003C50.663 74.7857 50.2347 74.8784 49.7319 74.8784H48.0859V73.7694H49.5082C49.7745 73.7694 49.994 73.7235 50.1666 73.6319C50.3413 73.5382 50.4712 73.4093 50.5565 73.2452C50.6438 73.079 50.6875 72.8883 50.6875 72.6731C50.6875 72.4558 50.6438 72.2662 50.5565 72.1042C50.4712 71.9402 50.3413 71.8134 50.1666 71.7239C49.9918 71.6323 49.7702 71.5865 49.5018 71.5865H48.5685V77.0005H47.1847Z" fill="white"/>
<path d="M44.0174 77.0964C43.5124 77.0964 43.0778 76.9941 42.7134 76.7896C42.3512 76.5829 42.0721 76.291 41.8761 75.9139C41.68 75.5346 41.582 75.0861 41.582 74.5684C41.582 74.0634 41.68 73.6202 41.8761 73.2388C42.0721 72.8574 42.348 72.5602 42.7038 72.3471C43.0618 72.1341 43.4815 72.0275 43.9631 72.0275C44.2869 72.0275 44.5884 72.0797 44.8675 72.1841C45.1488 72.2864 45.3938 72.4409 45.6026 72.6475C45.8136 72.8542 45.9776 73.1142 46.0948 73.4274C46.212 73.7385 46.2706 74.1028 46.2706 74.5204V74.8944H42.1254V74.0506H44.989C44.989 73.8546 44.9464 73.6809 44.8612 73.5297C44.7759 73.3784 44.6577 73.2601 44.5064 73.1749C44.3572 73.0875 44.1836 73.0439 43.9854 73.0439C43.7788 73.0439 43.5955 73.0918 43.4357 73.1877C43.2781 73.2814 43.1545 73.4082 43.065 73.568C42.9755 73.7257 42.9297 73.9015 42.9276 74.0953V74.8975C42.9276 75.1404 42.9723 75.3503 43.0618 75.5272C43.1534 75.704 43.2823 75.8404 43.4485 75.9363C43.6147 76.0321 43.8118 76.0801 44.0398 76.0801C44.1911 76.0801 44.3295 76.0588 44.4553 76.0162C44.581 75.9735 44.6886 75.9096 44.7781 75.8244C44.8675 75.7392 44.9357 75.6348 44.9826 75.5112L46.2418 75.5943C46.1779 75.8968 46.0469 76.161 45.8487 76.3869C45.6527 76.6106 45.3991 76.7853 45.0881 76.911C44.7791 77.0346 44.4222 77.0964 44.0174 77.0964Z" fill="white"/>
<rect x="12" y="29" width="37" height="6" rx="3" fill="#2D7A3A" fill-opacity="0.5"/>
<rect x="12" y="40" width="37" height="6" rx="3" fill="#2D7A3A" fill-opacity="0.5"/>
<rect x="12" y="51" width="24" height="6" rx="3" fill="#2D7A3A" fill-opacity="0.5"/>
<rect x="50" width="11" height="11" fill="#2D7A3A" fill-opacity="0.5"/>
</svg>
