<svg width="69" height="83" viewBox="0 0 69 83" fill="none" xmlns="http://www.w3.org/2000/svg">
<rect x="38" y="64" width="31" height="19" rx="7" fill="#C8501A"/>
<path d="M11 2H45V16H59V68C59 72.9706 54.9706 77 50 77H11C6.02944 77 2 72.9706 2 68V11C2 6.02944 6.02944 2 11 2Z" stroke="#C8501A" stroke-width="4"/>
<path d="M58.125 77.0005V70.4551H62.4588V71.5961H59.5089V73.1557H62.1712V74.2967H59.5089V77.0005H58.125Z" fill="white"/>
<path d="M53.8975 77.0005H51.5771V70.4551H53.9166C54.575 70.4551 55.1418 70.5861 55.6169 70.8482C56.0921 71.1081 56.4575 71.4821 56.7132 71.97C56.971 72.4579 57.0999 73.0417 57.0999 73.7214C57.0999 74.4032 56.971 74.9892 56.7132 75.4792C56.4575 75.9693 56.0899 76.3453 55.6105 76.6074C55.1333 76.8695 54.5622 77.0005 53.8975 77.0005ZM52.961 75.8148H53.8399C54.249 75.8148 54.5931 75.7424 54.8722 75.5975C55.1535 75.4505 55.3644 75.2235 55.5051 74.9167C55.6478 74.6078 55.7192 74.2093 55.7192 73.7214C55.7192 73.2377 55.6478 72.8425 55.5051 72.5357C55.3644 72.2289 55.1546 72.003 54.8754 71.8581C54.5963 71.7132 54.2522 71.6408 53.8431 71.6408H52.961V75.8148Z" fill="white"/>
<path d="M45.75 77.0005V70.4551H48.3324C48.8288 70.4551 49.2518 70.5499 49.6012 70.7395C49.9506 70.927 50.217 71.188 50.4002 71.5225C50.5856 71.8549 50.6783 72.2385 50.6783 72.6731C50.6783 73.1078 50.5845 73.4913 50.397 73.8237C50.2095 74.1561 49.9379 74.415 49.582 74.6003C49.2283 74.7857 48.8001 74.8784 48.2972 74.8784H46.6513V73.7694H48.0735C48.3398 73.7694 48.5593 73.7235 48.7319 73.6319C48.9066 73.5382 49.0366 73.4093 49.1218 73.2452C49.2092 73.079 49.2528 72.8883 49.2528 72.6731C49.2528 72.4558 49.2092 72.2662 49.1218 72.1042C49.0366 71.9402 48.9066 71.8134 48.7319 71.7239C48.5572 71.6323 48.3356 71.5865 48.0671 71.5865H47.1339V77.0005H45.75Z" fill="white"/>
<rect x="12" y="29" width="37" height="6" rx="3" fill="#C8501A" fill-opacity="0.5"/>
<rect x="12" y="40" width="37" height="6" rx="3" fill="#C8501A" fill-opacity="0.5"/>
<rect x="12" y="51" width="24" height="6" rx="3" fill="#C8501A" fill-opacity="0.5"/>
<rect x="50" width="11" height="11" fill="#C8501A" fill-opacity="0.5"/>
</svg>
